<svg width="404" height="253" viewBox="0 0 404 253" fill="none" xmlns="http://www.w3.org/2000/svg">
<path d="M362.582 1H4C2.34315 1 1 2.34314 1 3.99999V217C1 236.33 16.67 252 36 252H263.473C266.015 252 268.461 251.032 270.315 249.294L300.068 221.385C301.921 219.646 304.368 218.678 306.909 218.678H400C401.657 218.678 403 217.335 403 215.678V41.6969C403 39.0606 401.959 36.5309 400.103 34.6582L369.686 3.9613C367.808 2.06615 365.25 1 362.582 1Z" fill="white" fill-opacity="0.4"/>
<path fill-rule="evenodd" clip-rule="evenodd" d="M0 4.11914C0 1.91 1.79086 0.119141 4 0.119141H361.982C364.918 0.119141 367.733 1.29314 369.799 3.37976L400.16 34.0443C402.199 36.104 403.343 38.8853 403.343 41.7837V215.619C403.343 217.828 401.552 219.619 399.343 219.619H306.418C304.129 219.619 301.927 220.491 300.258 222.057L270.564 249.933C268.525 251.848 265.833 252.913 263.035 252.913H36C16.1177 252.913 0 236.796 0 216.913V4.11914ZM2 216.913V75.8699L11.4957 68.0699V32.2422L35.0189 9.80461H53.4756L60.1587 2.11914H361.982C363.361 2.11914 364.708 2.43574 365.924 3.02846C365.841 3.17224 365.791 3.3426 365.791 3.53335V14.1474L382.8 30.7946L396.367 33.0557L398.739 35.4515C400.407 37.1367 401.343 39.4123 401.343 41.7837V166.884L391.848 179.896V217.619H306.418C303.621 217.619 300.929 218.685 298.889 220.599L269.195 248.475C267.527 250.041 265.324 250.913 263.035 250.913H36C17.2223 250.913 2 235.691 2 216.913Z" fill="white"/>
</svg>
