<svg width="43" height="43" viewBox="0 0 43 43" fill="none" xmlns="http://www.w3.org/2000/svg">
<mask id="path-1-outside-1_2262_29122" maskUnits="userSpaceOnUse" x="0" y="0" width="43" height="43" fill="black">
<rect fill="white" width="43" height="43"/>
<path fill-rule="evenodd" clip-rule="evenodd" d="M21.5 1C32.8218 1 42 10.1782 42 21.5C42 32.8218 32.8218 42 21.5 42C10.1782 42 1 32.8218 1 21.5C1 10.1782 10.1782 1 21.5 1ZM24.7455 11.4611C25.341 9.71609 27.2384 8.78426 28.9834 9.37979C30.7851 9.99468 31.7087 11.9893 31.0121 13.761L24.0586 31.446C23.9679 31.6766 23.8511 31.889 23.713 32.0811C23.4406 32.6801 22.9927 33.2069 22.3895 33.5767C20.7807 34.5629 18.6771 34.0582 17.6909 32.4494L11.0706 21.6499C10.0845 20.0412 10.5892 17.9375 12.1979 16.9514C13.8067 15.9652 15.9103 16.4699 16.8965 18.0786L20.4877 23.937L24.7455 11.4611Z"/>
</mask>
<path fill-rule="evenodd" clip-rule="evenodd" d="M21.5 1C32.8218 1 42 10.1782 42 21.5C42 32.8218 32.8218 42 21.5 42C10.1782 42 1 32.8218 1 21.5C1 10.1782 10.1782 1 21.5 1ZM24.7455 11.4611C25.341 9.71609 27.2384 8.78426 28.9834 9.37979C30.7851 9.99468 31.7087 11.9893 31.0121 13.761L24.0586 31.446C23.9679 31.6766 23.8511 31.889 23.713 32.0811C23.4406 32.6801 22.9927 33.2069 22.3895 33.5767C20.7807 34.5629 18.6771 34.0582 17.6909 32.4494L11.0706 21.6499C10.0845 20.0412 10.5892 17.9375 12.1979 16.9514C13.8067 15.9652 15.9103 16.4699 16.8965 18.0786L20.4877 23.937L24.7455 11.4611Z" fill="url(#paint0_linear_2262_29122)"/>
<path d="M28.9834 9.37979L29.3064 8.43339L29.3064 8.43339L28.9834 9.37979ZM24.7455 11.4611L23.7991 11.1381L23.7991 11.1381L24.7455 11.4611ZM31.0121 13.761L30.0814 13.3951L30.0814 13.3951L31.0121 13.761ZM24.0586 31.446L23.128 31.08L23.128 31.08L24.0586 31.446ZM23.713 32.0811L22.9011 31.4974L22.8435 31.5774L22.8027 31.6672L23.713 32.0811ZM22.3895 33.5767L21.8668 32.7241L21.8668 32.7241L22.3895 33.5767ZM17.6909 32.4494L18.5435 31.9268L18.5435 31.9268L17.6909 32.4494ZM11.0706 21.6499L11.9232 21.1273L11.9232 21.1273L11.0706 21.6499ZM12.1979 16.9514L11.6753 16.0988L11.6753 16.0988L12.1979 16.9514ZM16.8965 18.0786L17.749 17.556L17.749 17.556L16.8965 18.0786ZM20.4877 23.937L19.6352 24.4596L20.747 26.2733L21.4341 24.26L20.4877 23.937ZM43 21.5C43 9.62588 33.3741 0 21.5 0V2C32.2696 2 41 10.7304 41 21.5H43ZM21.5 43C33.3741 43 43 33.3741 43 21.5H41C41 32.2696 32.2696 41 21.5 41V43ZM0 21.5C0 33.3741 9.62588 43 21.5 43V41C10.7304 41 2 32.2696 2 21.5H0ZM21.5 0C9.62588 0 0 9.62588 0 21.5H2C2 10.7304 10.7304 2 21.5 2V0ZM29.3064 8.43339C27.0387 7.65948 24.573 8.87042 23.7991 11.1381L25.6919 11.7841C26.109 10.5618 27.4381 9.90905 28.6604 10.3262L29.3064 8.43339ZM31.9427 14.1269C32.848 11.8245 31.6477 9.23245 29.3064 8.43339L28.6604 10.3262C29.9224 10.7569 30.5694 12.1541 30.0814 13.3951L31.9427 14.1269ZM24.9893 31.8119L31.9427 14.1269L30.0814 13.3951L23.128 31.08L24.9893 31.8119ZM24.525 32.6649C24.7112 32.4059 24.868 32.1204 24.9893 31.8119L23.128 31.08C23.0679 31.2329 22.9911 31.3721 22.9011 31.4974L24.525 32.6649ZM22.9121 34.4293C23.6906 33.952 24.271 33.2699 24.6233 32.4951L22.8027 31.6672C22.6103 32.0902 22.2947 32.4619 21.8668 32.7241L22.9121 34.4293ZM16.8383 32.9721C18.1132 35.0517 20.8325 35.7041 22.9121 34.4293L21.8668 32.7241C20.7289 33.4217 19.241 33.0647 18.5435 31.9268L16.8383 32.9721ZM10.2181 22.1725L16.8383 32.9721L18.5435 31.9268L11.9232 21.1273L10.2181 22.1725ZM11.6753 16.0988C9.59567 17.3736 8.94326 20.0929 10.2181 22.1725L11.9232 21.1273C11.2257 19.9894 11.5826 18.5015 12.7205 17.8039L11.6753 16.0988ZM17.749 17.556C16.4742 15.4764 13.7549 14.824 11.6753 16.0988L12.7205 17.8039C13.8584 17.1064 15.3464 17.4633 16.0439 18.6012L17.749 17.556ZM21.3403 23.4143L17.749 17.556L16.0439 18.6012L19.6352 24.4596L21.3403 23.4143ZM23.7991 11.1381L19.5413 23.614L21.4341 24.26L25.6919 11.7841L23.7991 11.1381Z" fill="url(#paint1_linear_2262_29122)" mask="url(#path-1-outside-1_2262_29122)"/>
<defs>
<linearGradient id="paint0_linear_2262_29122" x1="9" y1="5" x2="37" y2="42" gradientUnits="userSpaceOnUse">
<stop stop-color="#F595F0"/>
<stop offset="1" stop-color="#312999"/>
<stop offset="1" stop-color="#292560"/>
</linearGradient>
<linearGradient id="paint1_linear_2262_29122" x1="8.5" y1="3.5" x2="35" y2="42" gradientUnits="userSpaceOnUse">
<stop stop-color="#292560"/>
<stop offset="1" stop-color="#F595F0"/>
</linearGradient>
</defs>
</svg>
