<svg width="62" height="62" viewBox="0 0 62 62" fill="none" xmlns="http://www.w3.org/2000/svg">
<mask id="path-1-inside-1_2268_28972" fill="white">
<path fill-rule="evenodd" clip-rule="evenodd" d="M31 0C48.1208 0 62 13.8792 62 31C62 48.1208 48.1208 62 31 62C13.8792 62 0 48.1208 0 31C0 13.8792 13.8792 0 31 0ZM35.9079 15.8193C36.8085 13.1805 39.6777 11.7714 42.3165 12.6719C45.041 13.6018 46.4376 16.618 45.3842 19.2972L34.8693 46.0403C34.7319 46.3897 34.5549 46.7113 34.3456 47.0022C33.9337 47.9074 33.2565 48.7036 32.3448 49.2624C29.912 50.7538 26.7309 49.9906 25.2396 47.5578L15.2285 31.2268C13.7372 28.7941 14.5004 25.613 16.9331 24.1217C19.3659 22.6304 22.547 23.3935 24.0383 25.8263L29.4692 34.6857L35.9079 15.8193Z"/>
</mask>
<path fill-rule="evenodd" clip-rule="evenodd" d="M31 0C48.1208 0 62 13.8792 62 31C62 48.1208 48.1208 62 31 62C13.8792 62 0 48.1208 0 31C0 13.8792 13.8792 0 31 0ZM35.9079 15.8193C36.8085 13.1805 39.6777 11.7714 42.3165 12.6719C45.041 13.6018 46.4376 16.618 45.3842 19.2972L34.8693 46.0403C34.7319 46.3897 34.5549 46.7113 34.3456 47.0022C33.9337 47.9074 33.2565 48.7036 32.3448 49.2624C29.912 50.7538 26.7309 49.9906 25.2396 47.5578L15.2285 31.2268C13.7372 28.7941 14.5004 25.613 16.9331 24.1217C19.3659 22.6304 22.547 23.3935 24.0383 25.8263L29.4692 34.6857L35.9079 15.8193Z" fill="url(#paint0_linear_2268_28972)"/>
<path d="M42.3165 12.6719L41.3475 15.5112L41.3475 15.5112L42.3165 12.6719ZM35.9079 15.8193L33.0687 14.8503L33.0687 14.8503L35.9079 15.8193ZM45.3842 19.2972L48.1762 20.3949L48.1762 20.3949L45.3842 19.2972ZM34.8693 46.0403L32.0773 44.9425L32.0773 44.9425L34.8693 46.0403ZM34.3456 47.0022L31.9105 45.2499L31.7377 45.4902L31.6151 45.7595L34.3456 47.0022ZM32.3448 49.2624L30.7769 46.7048L30.7769 46.7048L32.3448 49.2624ZM25.2396 47.5578L27.7973 45.9899L27.7973 45.9899L25.2396 47.5578ZM15.2285 31.2268L12.6708 32.7947L12.6708 32.7947L15.2285 31.2268ZM24.0383 25.8263L26.596 24.2584L26.596 24.2584L24.0383 25.8263ZM29.4692 34.6857L26.9115 36.2536L30.247 41.6948L32.3084 35.6546L29.4692 34.6857ZM65 31C65 12.2223 49.7777 -3 31 -3V3C46.464 3 59 15.536 59 31H65ZM31 65C49.7777 65 65 49.7777 65 31H59C59 46.464 46.464 59 31 59V65ZM-3 31C-3 49.7777 12.2223 65 31 65V59C15.536 59 3 46.464 3 31H-3ZM31 -3C12.2223 -3 -3 12.2223 -3 31H3C3 15.536 15.536 3 31 3V-3ZM43.2854 9.83274C39.0786 8.39703 34.5044 10.6435 33.0687 14.8503L38.7471 16.7882C39.1126 15.7175 40.2768 15.1457 41.3475 15.5112L43.2854 9.83274ZM48.1762 20.3949C49.8555 16.1237 47.6289 11.3151 43.2854 9.83274L41.3475 15.5112C42.453 15.8884 43.0197 17.1123 42.5923 18.1994L48.1762 20.3949ZM37.6612 47.138L48.1762 20.3949L42.5923 18.1994L32.0773 44.9425L37.6612 47.138ZM36.7807 48.7544C37.1346 48.2626 37.4319 47.7214 37.6612 47.138L32.0773 44.9425C32.0319 45.058 31.9753 45.16 31.9105 45.2499L36.7807 48.7544ZM33.9127 51.8201C35.3501 50.9389 36.4242 49.6774 37.0762 48.2448L31.6151 45.7595C31.4431 46.1374 31.1628 46.4682 30.7769 46.7048L33.9127 51.8201ZM22.6819 49.1257C25.0392 52.971 30.0673 54.1774 33.9127 51.8201L30.7769 46.7048C29.7567 47.3302 28.4227 47.0101 27.7973 45.9899L22.6819 49.1257ZM12.6708 32.7947L22.6819 49.1257L27.7973 45.9899L17.7862 29.6589L12.6708 32.7947ZM15.3652 21.564C11.5199 23.9212 10.3136 28.9494 12.6708 32.7947L17.7862 29.6589C17.1608 28.6387 17.4808 27.3047 18.501 26.6793L15.3652 21.564ZM26.596 24.2584C24.2387 20.4131 19.2106 19.2068 15.3652 21.564L18.501 26.6793C19.5212 26.054 20.8552 26.374 21.4806 27.3942L26.596 24.2584ZM32.0269 33.1178L26.596 24.2584L21.4806 27.3942L26.9115 36.2536L32.0269 33.1178ZM33.0687 14.8503L26.63 33.7167L32.3084 35.6546L38.7471 16.7882L33.0687 14.8503Z" fill="url(#paint1_radial_2268_28972)" mask="url(#path-1-inside-1_2268_28972)"/>
<defs>
<linearGradient id="paint0_linear_2268_28972" x1="12.0976" y1="6.04878" x2="50" y2="53" gradientUnits="userSpaceOnUse">
<stop stop-color="#F595F0"/>
<stop offset="1" stop-color="#312999"/>
<stop offset="1" stop-color="#3C306D"/>
</linearGradient>
<radialGradient id="paint1_radial_2268_28972" cx="0" cy="0" r="1" gradientUnits="userSpaceOnUse" gradientTransform="translate(27 25) rotate(54.2239) scale(41.9076)">
<stop stop-color="#292560"/>
<stop offset="1" stop-color="#F595F0"/>
</radialGradient>
</defs>
</svg>
