<svg width="89" height="164" viewBox="0 0 89 164" fill="none" xmlns="http://www.w3.org/2000/svg">
<mask id="path-1-inside-1_1732_24146" fill="white">
<path d="M5 153L5 11H84L84 153H5Z"/>
</mask>
<path d="M5 153L5 11H84L84 153H5Z" fill="url(#paint0_linear_1732_24146)" fill-opacity="0.8"/>
<path d="M5 153H4V154H5V153ZM5 11V10H4V11H5ZM84 11H85V10H84V11ZM84 153V154H85V153H84ZM6 153L6 11H4L4 153H6ZM5 12H84V10H5V12ZM83 11L83 153H85L85 11H83ZM84 152H5V154H84V152Z" fill="#66FEE6" fill-opacity="0.5" mask="url(#path-1-inside-1_1732_24146)"/>
<path d="M76.4 12.5L80.2667 24H86.0667L88 1L1 1L2.93333 24H8.73334L12.6 12.5L76.4 12.5Z" fill="url(#paint1_linear_1732_24146)" stroke="url(#paint2_linear_1732_24146)"/>
<path d="M12.6 151.5L8.73333 140H2.93333L1 163H88L86.0667 140H80.2667L76.4 151.5H12.6Z" fill="url(#paint3_linear_1732_24146)" stroke="url(#paint4_linear_1732_24146)"/>
<defs>
<linearGradient id="paint0_linear_1732_24146" x1="48.5" y1="198" x2="49" y2="11" gradientUnits="userSpaceOnUse">
<stop stop-color="white" stop-opacity="0.6"/>
<stop offset="1" stop-color="white" stop-opacity="0"/>
<stop offset="1" stop-color="white" stop-opacity="0"/>
</linearGradient>
<linearGradient id="paint1_linear_1732_24146" x1="43.5333" y1="8.66667" x2="43.5333" y2="-6.66667" gradientUnits="userSpaceOnUse">
<stop stop-color="#66FEE6"/>
<stop offset="1" stop-color="#66FEE6" stop-opacity="0"/>
</linearGradient>
<linearGradient id="paint2_linear_1732_24146" x1="52" y1="1" x2="53" y2="24" gradientUnits="userSpaceOnUse">
<stop stop-color="#66FEE6"/>
<stop offset="1" stop-color="#66FEE6" stop-opacity="0"/>
</linearGradient>
<linearGradient id="paint3_linear_1732_24146" x1="45.4667" y1="155.333" x2="45.4667" y2="170.667" gradientUnits="userSpaceOnUse">
<stop stop-color="#66FEE6"/>
<stop offset="1" stop-color="#66FEE6" stop-opacity="0"/>
</linearGradient>
<linearGradient id="paint4_linear_1732_24146" x1="47" y1="163" x2="46.5" y2="140" gradientUnits="userSpaceOnUse">
<stop stop-color="#66FEE6"/>
<stop offset="1" stop-color="#66FEE6" stop-opacity="0"/>
</linearGradient>
</defs>
</svg>
