<svg width="1920" height="930" viewBox="0 0 1920 930" fill="none" xmlns="http://www.w3.org/2000/svg">
<rect width="1920" height="930" transform="matrix(-1 0 0 1 1920 0)" fill="url(#paint0_linear_2262_29118)"/>
<g opacity="0.5">
<path d="M782.705 304.521L2.29395 1.5094" stroke="#9FA0A0" stroke-miterlimit="10"/>
<path d="M782.705 314.847L2.29395 31.3886" stroke="#9FA0A0" stroke-miterlimit="10"/>
<path d="M782.705 325.172L2.29395 61.2678" stroke="#9FA0A0" stroke-miterlimit="10"/>
<path d="M782.705 335.464L2.29395 91.1127" stroke="#9FA0A0" stroke-miterlimit="10"/>
<path d="M782.705 345.789L2.29395 120.992" stroke="#9FA0A0" stroke-miterlimit="10"/>
<path d="M782.705 356.115L2.29395 150.871" stroke="#9FA0A0" stroke-miterlimit="10"/>
<path d="M782.705 366.441L2.29395 180.75" stroke="#9FA0A0" stroke-miterlimit="10"/>
<path d="M782.705 376.766L2.29395 210.595" stroke="#9FA0A0" stroke-miterlimit="10"/>
<path d="M782.705 387.092L2.29395 240.474" stroke="#9FA0A0" stroke-miterlimit="10"/>
<path d="M782.705 397.418L2.29395 270.354" stroke="#9FA0A0" stroke-miterlimit="10"/>
<path d="M782.705 407.743L2.29395 300.199" stroke="#9FA0A0" stroke-miterlimit="10"/>
<path d="M782.705 418.035L2.29395 330.078" stroke="#9FA0A0" stroke-miterlimit="10"/>
<path d="M782.705 428.36L2.29395 359.957" stroke="#9FA0A0" stroke-miterlimit="10"/>
<path d="M782.705 438.686L2.29395 389.836" stroke="#9FA0A0" stroke-miterlimit="10"/>
<path d="M782.705 449.012L2.29395 419.681" stroke="#9FA0A0" stroke-miterlimit="10"/>
<path d="M782.705 459.337L2.29395 449.56" stroke="#9FA0A0" stroke-miterlimit="10"/>
<path d="M782.705 469.663L2.29395 479.44" stroke="#9FA0A0" stroke-miterlimit="10"/>
<path d="M782.705 479.988L2.29395 509.285" stroke="#9FA0A0" stroke-miterlimit="10"/>
<path d="M782.705 490.28L2.29395 539.164" stroke="#9FA0A0" stroke-miterlimit="10"/>
<path d="M782.705 500.605L2.29395 569.043" stroke="#9FA0A0" stroke-miterlimit="10"/>
<path d="M782.705 510.931L2.29395 598.888" stroke="#9FA0A0" stroke-miterlimit="10"/>
<path d="M782.705 521.257L2.29395 628.767" stroke="#9FA0A0" stroke-miterlimit="10"/>
<path d="M782.705 531.582L2.29395 658.646" stroke="#9FA0A0" stroke-miterlimit="10"/>
<path d="M782.705 541.908L2.29395 688.526" stroke="#9FA0A0" stroke-miterlimit="10"/>
<path d="M782.705 552.234L2.29395 718.37" stroke="#9FA0A0" stroke-miterlimit="10"/>
<path d="M782.705 562.559L2.29395 748.25" stroke="#9FA0A0" stroke-miterlimit="10"/>
<path d="M782.705 572.851L2.29395 778.129" stroke="#9FA0A0" stroke-miterlimit="10"/>
<path d="M782.705 583.176L2.29395 807.974" stroke="#9FA0A0" stroke-miterlimit="10"/>
<path d="M782.705 593.502L2.29395 837.853" stroke="#9FA0A0" stroke-miterlimit="10"/>
<path d="M782.705 603.828L2.29395 867.732" stroke="#9FA0A0" stroke-miterlimit="10"/>
<path d="M782.705 614.153L2.29395 897.611" stroke="#9FA0A0" stroke-miterlimit="10"/>
<path d="M782.705 624.479L2.29395 927.456" stroke="#9FA0A0" stroke-miterlimit="10"/>
<path d="M2.29395 1.5094V927.456" stroke="#9FA0A0" stroke-miterlimit="10"/>
<path d="M70.9375 28.164V900.802" stroke="#9FA0A0" stroke-miterlimit="10"/>
<path d="M132.148 51.937V877.063" stroke="#9FA0A0" stroke-miterlimit="10"/>
<path d="M186.98 73.2401V855.76" stroke="#9FA0A0" stroke-miterlimit="10"/>
<path d="M236.491 92.4506V836.549" stroke="#9FA0A0" stroke-miterlimit="10"/>
<path d="M281.32 109.843V819.123" stroke="#9FA0A0" stroke-miterlimit="10"/>
<path d="M322.158 125.726V803.274" stroke="#9FA0A0" stroke-miterlimit="10"/>
<path d="M359.509 140.202V788.763" stroke="#9FA0A0" stroke-miterlimit="10"/>
<path d="M393.784 153.513V775.453" stroke="#9FA0A0" stroke-miterlimit="10"/>
<path d="M425.354 165.759V763.206" stroke="#9FA0A0" stroke-miterlimit="10"/>
<path d="M454.536 177.114V751.886" stroke="#9FA0A0" stroke-miterlimit="10"/>
<path d="M481.562 187.611V741.389" stroke="#9FA0A0" stroke-miterlimit="10"/>
<path d="M506.707 197.354V731.612" stroke="#9FA0A0" stroke-miterlimit="10"/>
<path d="M530.154 206.479V722.521" stroke="#9FA0A0" stroke-miterlimit="10"/>
<path d="M552.042 214.952V714.014" stroke="#9FA0A0" stroke-miterlimit="10"/>
<path d="M572.507 222.911V706.055" stroke="#9FA0A0" stroke-miterlimit="10"/>
<path d="M591.732 230.389V698.611" stroke="#9FA0A0" stroke-miterlimit="10"/>
<path d="M609.811 237.387V691.579" stroke="#9FA0A0" stroke-miterlimit="10"/>
<path d="M626.834 244.008V684.992" stroke="#9FA0A0" stroke-miterlimit="10"/>
<path d="M642.894 250.251V678.749" stroke="#9FA0A0" stroke-miterlimit="10"/>
<path d="M658.082 256.117V672.848" stroke="#9FA0A0" stroke-miterlimit="10"/>
<path d="M672.444 261.709V667.291" stroke="#9FA0A0" stroke-miterlimit="10"/>
<path d="M686.025 266.992V662.008" stroke="#9FA0A0" stroke-miterlimit="10"/>
<path d="M698.966 272V656.965" stroke="#9FA0A0" stroke-miterlimit="10"/>
<path d="M711.263 276.769V652.197" stroke="#9FA0A0" stroke-miterlimit="10"/>
<path d="M722.917 281.297V647.669" stroke="#9FA0A0" stroke-miterlimit="10"/>
<path d="M734.067 285.619V643.346" stroke="#9FA0A0" stroke-miterlimit="10"/>
<path d="M744.713 289.77V639.23" stroke="#9FA0A0" stroke-miterlimit="10"/>
<path d="M754.854 293.715V635.285" stroke="#9FA0A0" stroke-miterlimit="10"/>
<path d="M764.535 297.454V631.511" stroke="#9FA0A0" stroke-miterlimit="10"/>
<path d="M773.804 301.056V627.909" stroke="#9FA0A0" stroke-miterlimit="10"/>
<path d="M782.705 304.521V624.479" stroke="#9FA0A0" stroke-miterlimit="10"/>
</g>
<path d="M782.5 625.5H1137.5L1918 929H4L782.5 625.5Z" fill="url(#paint1_linear_2262_29118)" fill-opacity="0.4"/>
<path d="M1135 305.5H781L0 2L1914 2L1135 305.5Z" fill="url(#paint2_linear_2262_29118)" fill-opacity="0.4"/>
<path d="M1137.29 624.479L1917.71 927.491" stroke="#9FA0A0" stroke-opacity="0.5" stroke-miterlimit="10"/>
<path d="M1137.29 614.153L1917.71 897.611" stroke="#9FA0A0" stroke-opacity="0.5" stroke-miterlimit="10"/>
<path d="M1137.29 603.828L1917.71 867.732" stroke="#9FA0A0" stroke-opacity="0.5" stroke-miterlimit="10"/>
<path d="M1137.29 593.536L1917.71 837.887" stroke="#9FA0A0" stroke-opacity="0.5" stroke-miterlimit="10"/>
<path d="M1137.29 583.211L1917.71 808.008" stroke="#9FA0A0" stroke-opacity="0.5" stroke-miterlimit="10"/>
<path d="M1137.29 572.885L1917.71 778.129" stroke="#9FA0A0" stroke-opacity="0.5" stroke-miterlimit="10"/>
<path d="M1137.29 562.559L1917.71 748.25" stroke="#9FA0A0" stroke-opacity="0.5" stroke-miterlimit="10"/>
<path d="M1137.29 552.234L1917.71 718.405" stroke="#9FA0A0" stroke-opacity="0.5" stroke-miterlimit="10"/>
<path d="M1137.29 541.908L1917.71 688.526" stroke="#9FA0A0" stroke-opacity="0.5" stroke-miterlimit="10"/>
<path d="M1137.29 531.582L1917.71 658.646" stroke="#9FA0A0" stroke-opacity="0.5" stroke-miterlimit="10"/>
<path d="M1137.29 521.257L1917.71 628.801" stroke="#9FA0A0" stroke-opacity="0.5" stroke-miterlimit="10"/>
<path d="M1137.29 510.965L1917.71 598.922" stroke="#9FA0A0" stroke-opacity="0.5" stroke-miterlimit="10"/>
<path d="M1137.29 500.64L1917.71 569.043" stroke="#9FA0A0" stroke-opacity="0.5" stroke-miterlimit="10"/>
<path d="M1137.29 490.314L1917.71 539.164" stroke="#9FA0A0" stroke-opacity="0.5" stroke-miterlimit="10"/>
<path d="M1137.29 479.988L1917.71 509.319" stroke="#9FA0A0" stroke-opacity="0.5" stroke-miterlimit="10"/>
<path d="M1137.29 469.663L1917.71 479.44" stroke="#9FA0A0" stroke-opacity="0.5" stroke-miterlimit="10"/>
<path d="M1137.29 459.337L1917.71 449.56" stroke="#9FA0A0" stroke-opacity="0.5" stroke-miterlimit="10"/>
<path d="M1137.29 449.012L1917.71 419.715" stroke="#9FA0A0" stroke-opacity="0.5" stroke-miterlimit="10"/>
<path d="M1137.29 438.72L1917.71 389.836" stroke="#9FA0A0" stroke-opacity="0.5" stroke-miterlimit="10"/>
<path d="M1137.29 428.395L1917.71 359.957" stroke="#9FA0A0" stroke-opacity="0.5" stroke-miterlimit="10"/>
<path d="M1137.29 418.069L1917.71 330.112" stroke="#9FA0A0" stroke-opacity="0.5" stroke-miterlimit="10"/>
<path d="M1137.29 407.743L1917.71 300.233" stroke="#9FA0A0" stroke-opacity="0.5" stroke-miterlimit="10"/>
<path d="M1137.29 397.418L1917.71 270.354" stroke="#9FA0A0" stroke-opacity="0.5" stroke-miterlimit="10"/>
<path d="M1137.29 387.092L1917.71 240.474" stroke="#9FA0A0" stroke-opacity="0.5" stroke-miterlimit="10"/>
<path d="M1137.29 376.766L1917.71 210.63" stroke="#9FA0A0" stroke-opacity="0.5" stroke-miterlimit="10"/>
<path d="M1137.29 366.441L1917.71 180.75" stroke="#9FA0A0" stroke-opacity="0.5" stroke-miterlimit="10"/>
<path d="M1137.29 356.149L1917.71 150.871" stroke="#9FA0A0" stroke-opacity="0.5" stroke-miterlimit="10"/>
<path d="M1137.29 345.824L1917.71 121.026" stroke="#9FA0A0" stroke-opacity="0.5" stroke-miterlimit="10"/>
<path d="M1137.29 335.498L1917.71 91.147" stroke="#9FA0A0" stroke-opacity="0.5" stroke-miterlimit="10"/>
<path d="M1137.29 325.172L1917.71 61.2678" stroke="#9FA0A0" stroke-opacity="0.5" stroke-miterlimit="10"/>
<path d="M1137.29 314.847L1917.71 31.3885" stroke="#9FA0A0" stroke-opacity="0.5" stroke-miterlimit="10"/>
<path d="M1137.29 304.521L1917.71 1.54372" stroke="#9FA0A0" stroke-opacity="0.5" stroke-miterlimit="10"/>
<path d="M1917.71 927.491V1.54373" stroke="#9FA0A0" stroke-opacity="0.5" stroke-miterlimit="10"/>
<path d="M1849.06 900.836V28.1983" stroke="#9FA0A0" stroke-opacity="0.5" stroke-miterlimit="10"/>
<path d="M1787.85 877.063V51.937" stroke="#9FA0A0" stroke-opacity="0.5" stroke-miterlimit="10"/>
<path d="M1733.02 855.76V73.2401" stroke="#9FA0A0" stroke-opacity="0.5" stroke-miterlimit="10"/>
<path d="M1683.51 836.549V92.4506" stroke="#9FA0A0" stroke-opacity="0.5" stroke-miterlimit="10"/>
<path d="M1638.68 819.157V109.877" stroke="#9FA0A0" stroke-opacity="0.5" stroke-miterlimit="10"/>
<path d="M1597.84 803.274V125.726" stroke="#9FA0A0" stroke-opacity="0.5" stroke-miterlimit="10"/>
<path d="M1560.49 788.798V140.237" stroke="#9FA0A0" stroke-opacity="0.5" stroke-miterlimit="10"/>
<path d="M1526.21 775.487V153.547" stroke="#9FA0A0" stroke-opacity="0.5" stroke-miterlimit="10"/>
<path d="M1494.65 763.241V165.794" stroke="#9FA0A0" stroke-opacity="0.5" stroke-miterlimit="10"/>
<path d="M1465.46 751.886V177.114" stroke="#9FA0A0" stroke-opacity="0.5" stroke-miterlimit="10"/>
<path d="M1438.44 741.389V187.611" stroke="#9FA0A0" stroke-opacity="0.5" stroke-miterlimit="10"/>
<path d="M1413.29 731.646V197.388" stroke="#9FA0A0" stroke-opacity="0.5" stroke-miterlimit="10"/>
<path d="M1389.84 722.521V206.479" stroke="#9FA0A0" stroke-opacity="0.5" stroke-miterlimit="10"/>
<path d="M1367.96 714.048V214.986" stroke="#9FA0A0" stroke-opacity="0.5" stroke-miterlimit="10"/>
<path d="M1347.49 706.089V222.945" stroke="#9FA0A0" stroke-opacity="0.5" stroke-miterlimit="10"/>
<path d="M1328.27 698.611V230.389" stroke="#9FA0A0" stroke-opacity="0.5" stroke-miterlimit="10"/>
<path d="M1310.19 691.613V237.421" stroke="#9FA0A0" stroke-opacity="0.5" stroke-miterlimit="10"/>
<path d="M1293.17 684.992V244.008" stroke="#9FA0A0" stroke-opacity="0.5" stroke-miterlimit="10"/>
<path d="M1277.11 678.749V250.251" stroke="#9FA0A0" stroke-opacity="0.5" stroke-miterlimit="10"/>
<path d="M1261.92 672.883V256.152" stroke="#9FA0A0" stroke-opacity="0.5" stroke-miterlimit="10"/>
<path d="M1247.55 667.291V261.709" stroke="#9FA0A0" stroke-opacity="0.5" stroke-miterlimit="10"/>
<path d="M1233.97 662.008V266.992" stroke="#9FA0A0" stroke-opacity="0.5" stroke-miterlimit="10"/>
<path d="M1221.03 657V272.035" stroke="#9FA0A0" stroke-opacity="0.5" stroke-miterlimit="10"/>
<path d="M1208.74 652.231V276.803" stroke="#9FA0A0" stroke-opacity="0.5" stroke-miterlimit="10"/>
<path d="M1197.08 647.703V281.331" stroke="#9FA0A0" stroke-opacity="0.5" stroke-miterlimit="10"/>
<path d="M1185.93 643.381V285.654" stroke="#9FA0A0" stroke-opacity="0.5" stroke-miterlimit="10"/>
<path d="M1175.29 639.23V289.77" stroke="#9FA0A0" stroke-opacity="0.5" stroke-miterlimit="10"/>
<path d="M1165.15 635.285V293.715" stroke="#9FA0A0" stroke-opacity="0.5" stroke-miterlimit="10"/>
<path d="M1155.46 631.546V297.489" stroke="#9FA0A0" stroke-opacity="0.5" stroke-miterlimit="10"/>
<path d="M1146.2 627.944V301.091" stroke="#9FA0A0" stroke-opacity="0.5" stroke-miterlimit="10"/>
<path d="M1137.29 624.479V304.521" stroke="#9FA0A0" stroke-opacity="0.5" stroke-miterlimit="10"/>
<rect x="783" y="305" width="354" height="320" fill="url(#paint3_diamond_2262_29118)" fill-opacity="0.4"/>
<defs>
<linearGradient id="paint0_linear_2262_29118" x1="254" y1="72.0001" x2="1522" y2="762.5" gradientUnits="userSpaceOnUse">
<stop stop-color="#1A486A"/>
<stop offset="0.983977" stop-color="#201D46"/>
</linearGradient>
<linearGradient id="paint1_linear_2262_29118" x1="786" y1="626" x2="1340.5" y2="985" gradientUnits="userSpaceOnUse">
<stop/>
<stop offset="1" stop-color="#48A1CE"/>
</linearGradient>
<linearGradient id="paint2_linear_2262_29118" x1="1513" y1="93.5" x2="772" y2="306" gradientUnits="userSpaceOnUse">
<stop/>
<stop offset="1" stop-color="#48A1CE"/>
</linearGradient>
<radialGradient id="paint3_diamond_2262_29118" cx="0" cy="0" r="1" gradientUnits="userSpaceOnUse" gradientTransform="translate(960 465) rotate(-137.888) scale(238.598 249.737)">
<stop stop-color="#48A1CE"/>
<stop offset="1"/>
</radialGradient>
</defs>
</svg>
