<svg width="278" height="278" viewBox="0 0 278 278" fill="none" xmlns="http://www.w3.org/2000/svg">
<g clip-path="url(#clip0_696_5083)">
<path d="M93.4741 234.983C92.3983 233.125 91.1558 231.336 90.2743 229.395C87.2994 222.835 87.6056 216.123 89.6399 209.458C90.8386 205.535 92.3402 201.707 93.7617 197.862C94.5068 195.845 96.0883 195.025 97.7009 195.662C99.3204 196.299 99.9573 197.946 99.2574 199.952C98.0359 203.458 96.6751 206.914 95.5163 210.441C91.5634 222.469 95.3484 232.061 106.633 238.002C119.576 244.82 133.344 246.601 147.622 244.282C154.82 243.112 161.746 241.027 167.895 236.995C177.555 230.667 180.478 222.149 176.734 211.063C173.971 202.873 170.913 194.776 168.205 186.566C167.041 183.035 166.364 179.34 165.603 175.693C164.71 171.395 165.425 167.251 166.939 163.201C168.467 159.116 170.062 155.042 171.311 150.873C171.914 148.866 171.959 146.634 171.904 144.51C171.883 143.741 170.834 142.989 170.256 142.232C169.637 142.879 168.847 143.425 168.43 144.184C167.061 146.678 166.107 149.448 164.481 151.745C160.947 156.738 155.878 158.154 149.959 156.969C149.447 156.866 148.939 156.739 148.428 156.642C148.316 156.621 148.188 156.68 147.987 156.72C148.095 159.784 148.22 162.851 148.307 165.921C148.386 168.775 147.338 169.873 144.501 169.866C138.807 169.861 133.115 169.831 127.428 169.791C124.379 169.767 123.369 168.688 123.452 165.559C123.638 158.367 123.834 151.172 124.058 143.983C124.079 143.347 124.334 142.722 124.395 142.459C121.374 142.552 118.804 143.076 116.421 142.609C111.988 141.748 109.895 138.154 108.699 134.209C107.774 131.16 107.404 127.946 106.802 124.803C106.532 123.391 106.372 121.958 106.011 120.572C105.643 119.159 104.887 118.811 103.626 119.863C100.028 122.853 98.5759 126.869 98.1133 131.348C97.5708 136.578 98.5433 141.647 100.19 146.602C101.346 150.084 102.561 153.549 103.874 156.972C107.048 165.233 107.239 173.578 104.984 182.015C104.581 183.529 104.163 185.036 103.736 186.539C103.069 188.869 101.638 189.902 99.8517 189.376C98.0484 188.839 97.4712 187.314 98.0822 184.859C98.8399 181.824 99.6847 178.799 100.255 175.729C101.303 170.126 100.377 164.674 98.4893 159.332C96.1116 152.608 93.2444 146.017 92.4152 138.848C91.6187 131.996 92.0608 125.344 96.1083 119.494C97.3101 117.754 98.8289 116.138 100.492 114.831C104.26 111.873 109.196 113.092 111.042 117.581C112.04 120.013 112.195 122.777 112.778 125.38C113.388 128.116 113.742 130.954 114.752 133.542C116.37 137.7 120.851 138.368 123.888 135.072C124.289 134.636 124.31 133.756 124.331 133.079C124.871 114.447 125.386 95.8115 125.909 77.1762C126.04 72.4696 126.039 67.7484 126.337 63.0565C126.981 52.7655 126.427 42.5488 124.76 32.3549C124.516 30.8658 124.863 29.0805 125.485 27.6893C128.338 21.3369 131.358 15.0618 134.368 8.78316C136.272 4.81132 139.845 3.08258 143.816 4.09172C147.993 5.15396 150.581 9.17434 149.755 13.3945C149.429 15.0548 148.675 16.6818 148.645 18.34C148.587 20.9749 148.496 23.7696 149.265 26.2415C151.848 34.5276 150.714 41.83 144.834 48.2762C144.308 48.8509 144.076 49.9067 144.101 50.7342C144.293 57.7994 144.58 64.8616 144.835 71.9271C144.859 72.5808 144.879 73.2379 144.806 73.8842C144.622 75.4791 143.666 76.3786 142.092 76.4304C140.521 76.4857 139.495 75.6327 139.154 74.0876C138.998 73.3916 138.98 72.6614 138.953 71.9486C138.688 64.9561 138.429 57.9636 138.175 51.1067C136.301 51.0806 134.511 51.055 132.522 51.0249C131.481 88.4381 130.435 126.074 129.394 163.508C133.736 163.531 137.95 163.551 142.525 163.572C142.468 163.126 142.318 162.424 142.291 161.718C141.363 136.863 140.445 112.012 139.527 87.1611C139.507 86.5734 139.456 85.9822 139.491 85.3948C139.605 83.6397 140.712 82.4906 142.28 82.4526C143.858 82.4113 145.017 83.4665 145.303 85.227C145.375 85.6792 145.37 86.1381 145.386 86.5971C146.141 107.133 146.917 127.669 147.624 148.205C147.676 149.689 148.124 150.345 149.555 150.807C154.798 152.493 158.654 151.04 161.145 146.146C161.938 144.586 162.521 142.92 163.156 141.285C164.369 138.172 167.17 136.28 170.421 136.417C173.853 136.561 176.288 138.491 177.354 141.813C178.987 146.907 177.413 151.638 175.842 156.345C174.937 159.059 173.934 161.752 172.796 164.379C170.952 168.626 170.538 173.022 171.868 177.405C174.453 185.92 177.235 194.378 180.079 202.814C181.771 207.842 183.782 212.76 184.078 218.15C184.628 228.092 180.415 235.7 172.402 241.031C159.391 249.683 144.749 252.122 129.345 250.727C120.135 249.892 111.331 247.421 103.217 242.794C101.299 241.694 99.5065 240.378 97.6548 239.164C96.2613 237.77 94.8677 236.376 93.4706 234.979L93.4741 234.983ZM132.264 44.8633C134.621 44.8464 136.895 44.8917 139.161 44.777C139.707 44.7482 140.33 44.2783 140.735 43.8456C144.53 39.8129 145.534 35.079 144.084 29.7324C143.522 27.6543 142.636 25.5434 142.657 23.4611C142.697 20.0473 143.429 16.6541 143.716 13.238C143.802 12.2441 143.695 10.9469 143.121 10.242C142.202 9.10787 140.539 9.60429 139.819 11.1063C136.786 17.43 133.797 23.7783 130.809 30.1196C130.623 30.5151 130.462 30.9976 130.509 31.4115C131.051 35.8153 131.645 40.2158 132.257 44.8633L132.264 44.8633Z" fill="white"/>
<path d="M152.694 199.778C153.34 201.877 154.193 203.664 154.4 205.518C154.686 208.103 154.556 210.741 154.495 213.351C154.384 217.877 151.477 220.833 146.968 220.864C139.782 220.911 132.596 220.874 125.41 220.775C120.813 220.712 117.837 217.681 117.708 213.081C117.638 210.532 117.622 207.984 117.677 205.436C117.778 200.969 120.729 197.94 125.221 197.906C132.469 197.852 139.725 197.847 146.971 198.069C148.8 198.126 150.605 199.121 152.701 199.771L152.694 199.778ZM148.254 204.238C147.614 204.11 147.06 203.903 146.507 203.897C139.523 203.847 132.542 203.836 125.557 203.786C124.156 203.776 123.526 204.392 123.547 205.783C123.578 208.133 123.61 210.483 123.576 212.83C123.555 214.352 124.281 214.905 125.744 214.908C132.659 214.916 139.578 214.955 146.5 215.011C147.974 215.025 148.652 214.402 148.621 212.904C148.572 210.557 148.603 208.207 148.564 205.856C148.555 205.363 148.382 204.865 148.258 204.235L148.254 204.238Z" fill="white"/>
<path d="M148.217 177.417C151.372 180.849 152.148 183.901 151.009 187.275C149.891 190.587 147.474 192.786 144.002 192.962C138.726 193.222 133.41 193.222 128.131 192.899C123.638 192.621 120.387 188.622 120.422 184.172C120.457 179.778 123.825 175.851 128.24 175.656C133.387 175.433 138.571 175.474 143.721 175.772C145.536 175.878 147.304 177.065 148.217 177.417ZM126.702 182.174C126.651 183.314 126.223 184.567 126.664 185.327C127.158 186.181 128.41 187.067 129.37 187.113C133.738 187.321 138.114 187.289 142.488 187.239C144.448 187.22 145.556 186.099 145.586 184.427C145.617 182.72 144.401 181.519 142.374 181.485C138.067 181.413 133.756 181.393 129.448 181.439C128.659 181.446 127.872 181.849 126.705 182.178L126.702 182.174Z" fill="white"/>
<path d="M129.986 233.844C128.564 232.422 128.39 230.773 129.535 229.503C130.659 228.253 132.167 228.135 133.706 229.362C135.409 230.719 136.966 230.712 138.657 229.392C140.257 228.141 141.84 228.318 142.952 229.707C143.959 230.963 143.751 232.576 142.411 233.894C139.116 237.133 133.262 237.106 129.986 233.837L129.986 233.844Z" fill="white"/>
<path d="M119.941 233.634C118.429 235.132 115.704 234.553 115.26 232.462C114.919 230.847 114.886 229.063 115.188 227.448C115.595 225.288 118.499 224.675 120.004 226.264C121.269 227.598 121.229 232.36 119.941 233.634Z" fill="white"/>
<path d="M156.519 226.436C157.791 227.763 157.775 232.543 156.498 233.813C154.944 235.353 152.107 234.634 151.721 232.456C151.44 230.887 151.432 229.183 151.724 227.627C152.134 225.463 154.993 224.847 156.519 226.436Z" fill="white"/>
</g>
<defs>
<clipPath id="clip0_696_5083">
<rect width="200.022" height="192.329" fill="white" transform="translate(0.404785 141.914) rotate(-45)"/>
</clipPath>
</defs>
</svg>
