<svg width="1961" height="886" viewBox="0 0 1961 886" fill="none" xmlns="http://www.w3.org/2000/svg">
<path fill-rule="evenodd" clip-rule="evenodd" d="M0 0H1961V886H0V0ZM1435.5 0.999536H1957.5V296L1924 328.5V485L1956 530.5V885H1706L1643.5 819H818.5H323L261.5 885H4L3.5 520.5L37.5 487V326.5L3.5 292.5V0.999536H516L576.5 59.4995L1381.5 58.56L1435.5 0.999536Z" fill="#292560"/>
<path d="M1961 1H1437.04C1435.63 1 1434.29 1.59422 1433.34 2.63653L1397.22 42.3635C1396.27 43.4058 1394.93 44 1393.52 44H562.537C561.238 44 559.991 43.4946 559.058 42.5908L517.59 2.40923C516.658 1.5054 515.41 1 514.111 1H0" stroke="#66FEE6" stroke-width="2"/>
<path d="M1383.18 60.2399L1397 44H559L576.563 60.6306C577.492 61.5099 578.722 62 580.001 62H1379.38C1380.84 62 1382.23 61.3565 1383.18 60.2399Z" fill="#66FEE6"/>
<path d="M1961 885H1709.01C1707.66 885 1706.36 884.451 1705.42 883.479L1644.44 820.521C1643.5 819.549 1642.21 819 1640.85 819H324.448C323.05 819 321.716 819.585 320.769 820.614L262.987 883.386C262.041 884.415 260.706 885 259.309 885H0" stroke="#66FEE6" stroke-width="2"/>
<path d="M1954.24 531.979V885H1961V512.405L1940.11 492.832V325.059L1961 303.389V2.39611e-05H1954.24V288.01L1918 325.059V492.832L1954.24 531.979Z" fill="#66FEE6"/>
<path d="M6.75714 531.378L6.75714 884H0L0 511.826L20.8857 492.275L20.8857 324.692L0 303.046L0 3.71829e-05H6.75714L6.75714 287.684L43 324.692L43 492.275L6.75714 531.378Z" fill="#66FEE6"/>
<path d="M463.792 851.776H458.32V849.792L463.168 842.8H465.328V850.432H466.688V851.776H465.328V854H463.792V851.776ZM463.824 850.48V844.288H463.744L459.824 849.984V850.48H463.824ZM467.816 852.448V851.136H469.352V851.952L470.072 852.656H473.176L473.896 851.952V848.72L472.84 849.776H469.208L467.656 848.224V844.352L469.208 842.8H473.88L475.432 844.352V852.448L473.88 854H469.368L467.816 852.448ZM472.584 848.432L473.896 847.12V844.848L473.176 844.144H469.912L469.192 844.848V847.728L469.912 848.432H472.584ZM476.941 851.76L482.765 846.144V844.848L482.061 844.144H479.117L478.413 844.848V845.792H476.877V844.352L478.429 842.8H482.749L484.301 844.352V846.592L478.509 852.144V852.672H484.365V854H476.941V851.76ZM490.551 851.776H485.079V849.792L489.927 842.8H492.087V850.432H493.447V851.776H492.087V854H490.551V851.776ZM490.583 850.48V844.288H490.503L486.583 849.984V850.48H490.583Z" fill="#66FEE6"/>
<path d="M590 847V858H692.044L702 850.882V847H590Z" fill="#66FEE6"/>
<path d="M1442 847V858H1339.96L1330 850.882V847H1442Z" fill="#66FEE6"/>
<path d="M513.7 841H499L519.3 858H534L513.7 841Z" fill="#66FEE6"/>
<path d="M534.7 841H520L540.3 858H555L534.7 841Z" fill="#66FEE6"/>
<path d="M558.7 841H544L564.3 858H579L558.7 841Z" fill="#66FEE6"/>
<rect x="394" y="841" width="39" height="17" fill="#66FEE6"/>
<rect x="440" y="841" width="4" height="17" fill="#66FEE6"/>
<path d="M1474.47 853.776H1469L1469.35 851.792L1475.43 844.8H1477.59L1476.25 852.432H1477.61L1477.37 853.776H1476.01L1475.62 856H1474.09L1474.47 853.776ZM1474.74 852.48L1475.83 846.288H1475.75L1470.82 851.984L1470.74 852.48H1474.74ZM1478.4 854.352L1478.62 853.136H1480.16L1480 853.952L1480.61 854.656H1483.71L1484.54 853.952L1485.12 850.72L1483.87 851.776H1480.3L1478.99 850.176L1479.66 846.256L1481.38 844.8H1486.03L1487.41 846.448L1485.98 854.576L1484.3 856H1479.76L1478.4 854.352ZM1483.86 850.432L1485.41 849.12L1485.81 846.848L1485.2 846.144H1481.94L1481.1 846.848L1480.61 849.728L1481.2 850.432H1483.86ZM1492.02 849.984L1492.15 849.184L1492.77 848.656H1493.62L1494.04 849.2L1493.91 849.984L1493.3 850.512H1492.45L1492.02 849.984ZM1491.06 855.472L1491.19 854.672L1491.81 854.144H1492.64L1493.08 854.672L1492.95 855.472L1492.32 856H1491.49L1491.06 855.472ZM1498.22 853.76L1505.02 848.144L1505.25 846.848L1504.66 846.144H1501.74L1500.91 846.848L1500.74 847.792H1499.2L1499.47 846.256L1501.2 844.8H1505.47L1506.85 846.448L1506.46 848.656L1499.74 854.144L1499.65 854.672H1505.47L1505.23 856H1497.82L1498.22 853.76ZM1511.8 853.776H1506.33L1506.68 851.792L1512.76 844.8H1514.92L1513.58 852.432H1514.94L1514.7 853.776H1513.34L1512.95 856H1511.42L1511.8 853.776ZM1512.07 852.48L1513.16 846.288H1513.08L1508.15 851.984L1508.07 852.48H1512.07ZM1519.89 849.984L1520.02 849.184L1520.64 848.656H1521.49L1521.9 849.2L1521.78 849.984L1521.17 850.512H1520.32L1519.89 849.984ZM1518.93 855.472L1519.06 854.672L1519.68 854.144H1520.51L1520.94 854.672L1520.82 855.472L1520.19 856H1519.36L1518.93 855.472ZM1525.92 854.352L1526.14 853.024H1527.68L1527.5 853.952L1528.09 854.656H1531.31L1532.14 853.952L1532.54 851.728L1531.98 851.04H1528.78L1529.02 849.696H1532.22L1533.02 849.008L1533.4 846.848L1532.81 846.144H1529.69L1528.86 846.848L1528.7 847.776H1527.16L1527.42 846.256L1529.15 844.8H1533.63L1535 846.448L1534.46 849.488L1533.39 850.4L1534.14 851.312L1533.58 854.576L1531.9 856H1527.28L1525.92 854.352ZM1535.32 854.224L1536.7 846.384L1538.56 844.8H1543.28L1544.76 846.592L1543.37 854.464L1541.56 856H1536.78L1535.32 854.224ZM1540.94 854.656L1541.95 853.808L1543.15 846.992L1542.44 846.144H1539.13L1538.14 846.992L1536.92 853.808L1537.63 854.656H1540.94Z" fill="#66FEE6"/>
<path d="M686 852L1341 852" stroke="#66FEE6" stroke-width="2" stroke-linecap="round"/>
</svg>
