<svg width="111" height="111" viewBox="0 0 111 111" fill="none" xmlns="http://www.w3.org/2000/svg">
<path d="M62.4485 6.9375C62.4485 3.1002 59.3483 0 55.511 0C51.6737 0 48.5735 3.1002 48.5735 6.9375V52.0312C48.5735 53.9391 47.0126 55.5 45.1047 55.5C43.1969 55.5 41.636 53.9391 41.636 52.0312V13.875C41.636 10.0377 38.5358 6.9375 34.6985 6.9375C30.8612 6.9375 27.761 10.0377 27.761 13.875V72.8438C27.761 73.1689 27.761 73.5158 27.7827 73.841L14.6665 61.3535C11.1977 58.0582 5.71275 58.1883 2.39576 61.657C-0.921234 65.1258 -0.769476 70.6107 2.69927 73.9277L27.0672 97.125C36.4112 106.035 48.8337 111 61.7547 111H65.9173C86.9899 111 104.074 93.9164 104.074 72.8438V27.75C104.074 23.9127 100.973 20.8125 97.136 20.8125C93.2987 20.8125 90.1985 23.9127 90.1985 27.75V52.0312C90.1985 53.9391 88.6376 55.5 86.7298 55.5C84.8219 55.5 83.261 53.9391 83.261 52.0312V13.875C83.261 10.0377 80.1608 6.9375 76.3235 6.9375C72.4862 6.9375 69.386 10.0377 69.386 13.875V52.0312C69.386 53.9391 67.8251 55.5 65.9173 55.5C64.0094 55.5 62.4485 53.9391 62.4485 52.0312V6.9375Z" fill="white"/>
<path d="M52.9184 61.8716H56.1824V75.9116H64.5824V78.6716H52.9184V61.8716Z" fill="#312999"/>
</svg>
