<svg width="295" height="240" viewBox="0 0 295 240" fill="none" xmlns="http://www.w3.org/2000/svg">
<g filter="url(#filter0_d_667_6330)">
<rect x="22.5" y="24.5" width="249" height="191" rx="2.5" stroke="#F595F0" stroke-opacity="0.3" shape-rendering="crispEdges"/>
</g>
<path d="M0 237L0 203C0 201.343 1.34315 200 3 200H9.2807C10.9376 200 12.2807 201.343 12.2807 203L12.2807 225.13C12.2807 226.235 13.1761 227.13 14.2807 227.13H37C38.6569 227.13 40 228.474 40 230.13V237C40 238.657 38.6569 240 37 240H3C1.34315 240 0 238.657 0 237Z" fill="url(#paint0_linear_667_6330)" fill-opacity="0.7"/>
<path d="M0.5 203L0.5 237C0.5 238.381 1.61929 239.5 3 239.5H37C38.3807 239.5 39.5 238.381 39.5 237V230.13C39.5 228.75 38.3807 227.63 37 227.63H14.2807C12.9 227.63 11.7807 226.511 11.7807 225.13L11.7807 203C11.7807 201.619 10.6614 200.5 9.2807 200.5H3C1.61929 200.5 0.5 201.619 0.5 203Z" stroke="url(#paint1_linear_667_6330)" stroke-opacity="0.8"/>
<path d="M295 237V203C295 201.343 293.657 200 292 200H285.719C284.062 200 282.719 201.343 282.719 203V225.13C282.719 226.235 281.824 227.13 280.719 227.13H258C256.343 227.13 255 228.474 255 230.13V237C255 238.657 256.343 240 258 240H292C293.657 240 295 238.657 295 237Z" fill="url(#paint2_linear_667_6330)" fill-opacity="0.7"/>
<path d="M294.5 203V237C294.5 238.381 293.381 239.5 292 239.5H258C256.619 239.5 255.5 238.381 255.5 237V230.13C255.5 228.75 256.619 227.63 258 227.63H280.719C282.1 227.63 283.219 226.511 283.219 225.13V203C283.219 201.619 284.339 200.5 285.719 200.5H292C293.381 200.5 294.5 201.619 294.5 203Z" stroke="url(#paint3_linear_667_6330)" stroke-opacity="0.8"/>
<path d="M295 3V37C295 38.6569 293.657 40 292 40H285.719C284.062 40 282.719 38.6569 282.719 37V14.8696C282.719 13.765 281.824 12.8696 280.719 12.8696L258 12.8696C256.343 12.8696 255 11.5264 255 9.86957V3C255 1.34315 256.343 0 258 0H292C293.657 0 295 1.34314 295 3Z" fill="url(#paint4_linear_667_6330)" fill-opacity="0.7"/>
<path d="M294.5 37V3C294.5 1.61929 293.381 0.5 292 0.5H258C256.619 0.5 255.5 1.61929 255.5 3V9.86957C255.5 11.2503 256.619 12.3696 258 12.3696L280.719 12.3696C282.1 12.3696 283.219 13.4889 283.219 14.8696V37C283.219 38.3807 284.339 39.5 285.719 39.5H292C293.381 39.5 294.5 38.3807 294.5 37Z" stroke="url(#paint5_linear_667_6330)" stroke-opacity="0.8"/>
<path d="M0 3L0 37C0 38.6569 1.34315 40 3 40H9.2807C10.9376 40 12.2807 38.6569 12.2807 37L12.2807 14.8696C12.2807 13.765 13.1761 12.8696 14.2807 12.8696L37 12.8696C38.6569 12.8696 40 11.5264 40 9.86957V3C40 1.34315 38.6569 0 37 0H3C1.34315 0 0 1.34314 0 3Z" fill="url(#paint6_linear_667_6330)" fill-opacity="0.7"/>
<path d="M0.5 37L0.5 3C0.5 1.61929 1.61929 0.5 3 0.5H37C38.3807 0.5 39.5 1.61929 39.5 3V9.86957C39.5 11.2503 38.3807 12.3696 37 12.3696L14.2807 12.3696C12.9 12.3696 11.7807 13.4889 11.7807 14.8696L11.7807 37C11.7807 38.3807 10.6614 39.5 9.2807 39.5H3C1.61929 39.5 0.5 38.3807 0.5 37Z" stroke="url(#paint7_linear_667_6330)" stroke-opacity="0.8"/>
<defs>
<filter id="filter0_d_667_6330" x="17" y="19" width="260" height="202" filterUnits="userSpaceOnUse" color-interpolation-filters="sRGB">
<feFlood flood-opacity="0" result="BackgroundImageFix"/>
<feColorMatrix in="SourceAlpha" type="matrix" values="0 0 0 0 0 0 0 0 0 0 0 0 0 0 0 0 0 0 127 0" result="hardAlpha"/>
<feOffset/>
<feGaussianBlur stdDeviation="2.5"/>
<feComposite in2="hardAlpha" operator="out"/>
<feColorMatrix type="matrix" values="0 0 0 0 0.960784 0 0 0 0 0.584314 0 0 0 0 0.941176 0 0 0 1 0"/>
<feBlend mode="normal" in2="BackgroundImageFix" result="effect1_dropShadow_667_6330"/>
<feBlend mode="normal" in="SourceGraphic" in2="effect1_dropShadow_667_6330" result="shape"/>
</filter>
<linearGradient id="paint0_linear_667_6330" x1="20" y1="240" x2="20" y2="202" gradientUnits="userSpaceOnUse">
<stop stop-color="#F595F0"/>
<stop offset="1" stop-color="#F595F0" stop-opacity="0.1"/>
</linearGradient>
<linearGradient id="paint1_linear_667_6330" x1="2" y1="242" x2="28.5" y2="207" gradientUnits="userSpaceOnUse">
<stop stop-color="#F595F0"/>
<stop offset="1" stop-color="#F595F0" stop-opacity="0.1"/>
</linearGradient>
<linearGradient id="paint2_linear_667_6330" x1="275" y1="240" x2="275" y2="202" gradientUnits="userSpaceOnUse">
<stop stop-color="#F595F0"/>
<stop offset="1" stop-color="#F595F0" stop-opacity="0.1"/>
</linearGradient>
<linearGradient id="paint3_linear_667_6330" x1="293" y1="242" x2="266.5" y2="207" gradientUnits="userSpaceOnUse">
<stop stop-color="#F595F0"/>
<stop offset="1" stop-color="#F595F0" stop-opacity="0.1"/>
</linearGradient>
<linearGradient id="paint4_linear_667_6330" x1="275" y1="-2.04823e-08" x2="275" y2="38" gradientUnits="userSpaceOnUse">
<stop stop-color="#F595F0"/>
<stop offset="1" stop-color="#F595F0" stop-opacity="0.1"/>
</linearGradient>
<linearGradient id="paint5_linear_667_6330" x1="293" y1="-2" x2="266.5" y2="33" gradientUnits="userSpaceOnUse">
<stop stop-color="#F595F0"/>
<stop offset="1" stop-color="#F595F0" stop-opacity="0.1"/>
</linearGradient>
<linearGradient id="paint6_linear_667_6330" x1="20" y1="-2.04823e-08" x2="20" y2="38" gradientUnits="userSpaceOnUse">
<stop stop-color="#F595F0"/>
<stop offset="1" stop-color="#F595F0" stop-opacity="0.1"/>
</linearGradient>
<linearGradient id="paint7_linear_667_6330" x1="2" y1="-2" x2="28.5" y2="33" gradientUnits="userSpaceOnUse">
<stop stop-color="#F595F0"/>
<stop offset="1" stop-color="#F595F0" stop-opacity="0.1"/>
</linearGradient>
</defs>
</svg>
