<svg width="111" height="111" viewBox="0 0 111 111" fill="none" xmlns="http://www.w3.org/2000/svg">
<path d="M44.3953 6.9375C44.3953 3.1002 47.7018 0 51.7945 0C55.8872 0 59.1937 3.1002 59.1937 6.9375V52.0312C59.1937 53.9391 60.8586 55.5 62.8934 55.5C64.9281 55.5 66.593 53.9391 66.593 52.0312V13.875C66.593 10.0377 69.8995 6.9375 73.9922 6.9375C78.0849 6.9375 81.3914 10.0377 81.3914 13.875V72.8438C81.3914 73.1689 81.3914 73.5158 81.3683 73.841L95.3574 61.3535C99.057 58.0582 104.907 58.1883 108.445 61.657C111.983 65.1258 111.821 70.6107 108.121 73.9277L82.1313 97.125C72.1655 106.035 58.9163 111 45.1352 111H40.6957C18.2206 111 0 93.9164 0 72.8438V27.75C0 23.9127 3.30653 20.8125 7.39922 20.8125C11.4919 20.8125 14.7984 23.9127 14.7984 27.75V52.0312C14.7984 53.9391 16.4633 55.5 18.498 55.5C20.5328 55.5 22.1977 53.9391 22.1977 52.0312V13.875C22.1977 10.0377 25.5042 6.9375 29.5969 6.9375C33.6896 6.9375 36.9961 10.0377 36.9961 13.875V52.0312C36.9961 53.9391 38.6609 55.5 40.6957 55.5C42.7305 55.5 44.3953 53.9391 44.3953 52.0312V6.9375Z" fill="white"/>
<path d="M52.76 73.432V79H49.496V74.176L48.056 72.568H42.824V79H39.56V62.2H50.096L52.664 64.792V69.88L51.032 71.536L52.76 73.432ZM42.824 69.88H48.608L49.448 69.04V65.776L48.608 64.936H42.824V69.88Z" fill="#312999"/>
</svg>
