<?xml version="1.0" encoding="UTF-8"?>
<svg id="_圖層_2" data-name="圖層 2" xmlns="http://www.w3.org/2000/svg" xmlns:xlink="http://www.w3.org/1999/xlink" viewBox="0 0 340.07 162.22">
  <defs>
    <style>
      .cls-1 {
        fill: url(#_未命名漸層_37);
      }
    </style>
    <radialGradient id="_未命名漸層_37" data-name="未命名漸層 37" cx="20.29" cy="123.89" fx="20.29" fy="123.89" r="370.5" gradientTransform="translate(0 -2.31) scale(1 .77)" gradientUnits="userSpaceOnUse">
      <stop offset="0" stop-color="#292560"/>
      <stop offset="1" stop-color="#f595f0"/>
    </radialGradient>
  </defs>
  <g id="_圖層_1-2" data-name="圖層 1">
    <path class="cls-1" d="M288.85,17.88C257.03,6.35,214.83,0,170.03,0S83.03,6.35,51.21,17.88C18.19,29.85,0,46.11,0,63.67c0,2.13,2.24,3.86,5,3.86s5-1.73,5-3.86c0-14.39,16.15-28.17,45.46-38.8C85.98,13.81,126.67,7.72,170.03,7.72s84.05,6.09,114.57,17.15c29.32,10.63,45.46,24.4,45.46,38.8s-16.15,28.17-45.46,38.8c-29.92,10.84-69.6,16.91-112,17.14l22.1-17.07c1.95-1.51,1.95-3.95,0-5.46-1.95-1.51-5.12-1.51-7.07,0l-32.51,25.11c-1.55,1.19-1.85,2.97-.94,4.41,.22,.57,.6,1.11,1.17,1.56l31.94,25.54c.98,.78,2.29,1.18,3.6,1.18s2.5-.36,3.47-1.08c1.99-1.48,2.04-3.93,.12-5.46l-26.91-21.52c.73,.32,1.57,.52,2.47,.52,44.8,0,87-6.35,118.82-17.88,33.03-11.97,51.21-28.23,51.21-45.79s-18.19-33.82-51.21-45.79Zm-123.4,144.15l.05-.05c.04,.08,.08,.15,.12,.23l-.17-.18Z"/>
  </g>
</svg>