<svg width="37" height="150" viewBox="0 0 37 150" fill="none" xmlns="http://www.w3.org/2000/svg">
<path d="M11.3485 6.22125L32.3485 16.6994C34.8925 17.9687 36.5 20.5674 36.5 23.4104V118.829C36.5 121.219 35.361 123.466 33.4333 124.879L12.4333 140.268C7.47909 143.899 0.5 140.361 0.5 134.219V12.9322C0.5 7.3596 6.36213 3.73324 11.3485 6.22125Z" fill="#6F7184" stroke="#66FEE6"/>
<path d="M23.2 52.12L23.2 58.936L21.552 60.568L17.744 60.568L16.08 58.92L16.08 53.976L12 53.976L12 52.12L23.2 52.12ZM17.648 58.104L18.288 58.744L20.992 58.744L21.632 58.104L21.632 53.976L17.648 53.976L17.648 58.104ZM19.968 63.6869L19.968 65.3669L18.608 65.3669L19.968 66.6949L19.968 68.9029L18.416 68.9029L18.416 67.0949L16.784 65.4949L12 65.4949L12 63.6869L19.968 63.6869ZM13.584 71.1425L18.368 71.1425L19.968 72.7265L19.968 77.0625L18.368 78.6785L15.392 78.6785L15.392 72.9505L14.112 72.9505L13.504 73.5585L13.504 76.2945L14.096 76.8705L14.576 76.8705L14.576 78.6625L13.552 78.6625L12 77.1105L12 72.7105L13.584 71.1425ZM16.72 76.8705L17.824 76.8705L18.464 76.2465L18.464 73.5745L17.824 72.9505L16.72 72.9505L16.72 76.8705ZM19.968 81.005L19.968 82.877L14 84.893L14 84.957L19.968 86.989L19.968 88.861L12 85.837L12 84.013L19.968 81.005ZM21.68 91.5006L22.608 91.5006L23.248 92.1566L23.248 93.1326L22.608 93.7886L21.68 93.7886L21.04 93.1326L21.04 92.1566L21.68 91.5006ZM19.968 91.7406L19.968 93.5486L12 93.5486L12 91.7406L19.968 91.7406ZM13.6 97.2237L18.368 97.2237L19.968 98.8077L19.968 103.224L18.368 104.824L13.6 104.824L12 103.224L12 98.8077L13.6 97.2237ZM13.52 102.376L14.16 103.016L17.808 103.016L18.448 102.376L18.448 99.6717L17.808 99.0317L14.16 99.0317L13.52 99.6717L13.52 102.376ZM13.616 108.263L19.968 108.263L19.968 110.071L14.176 110.071L13.552 110.695L13.552 112.087L15.248 113.783L19.968 113.783L19.968 115.591L12 115.591L12 113.911L13.472 113.911L12 112.423L12 109.879L13.616 108.263ZM13.488 118.871L14.464 118.871L14.464 120.647L13.952 120.647L13.488 121.095L13.488 123.815L13.952 124.263L14.816 124.263L15.28 123.799L15.28 120.359L16.72 118.935L18.512 118.935L19.968 120.391L19.968 124.407L18.48 125.879L17.504 125.879L17.504 124.103L18.016 124.103L18.48 123.655L18.48 121.159L18.016 120.711L17.216 120.711L16.752 121.175L16.752 124.599L15.296 126.039L13.456 126.039L12 124.583L12 120.343L13.488 118.871Z" fill="#66FEE6"/>
<rect width="6.24996" height="6.24996" transform="matrix(-1 0 0 1 25.125 24)" fill="#66FEE6"/>
<rect width="6.24996" height="6.24996" transform="matrix(-1 0 0 1 18.25 30.875)" fill="#66FEE6"/>
<rect width="6.24996" height="6.24996" transform="matrix(-1 0 0 1 25.125 37.75)" fill="#66FEE6"/>
</svg>
