<svg width="37" height="150" viewBox="0 0 37 150" fill="none" xmlns="http://www.w3.org/2000/svg">
<path d="M25.6515 143.779L4.65148 133.301C2.10753 132.031 0.500002 129.433 0.500002 126.59L0.50001 31.1709C0.500011 28.781 1.63901 26.5341 3.56669 25.1214L24.5667 9.73163C29.5209 6.10094 36.5 9.6389 36.5 15.7811L36.5 137.068C36.5 142.64 30.6379 146.267 25.6515 143.779Z" fill="#6F7184" stroke="#66FEE6"/>
<path d="M11.4 112.74L11.4 110.832L20.562 104.892L20.562 104.856L11.4 104.856L11.4 102.858L24 102.858L24 104.766L14.856 110.706L14.856 110.742L24 110.742L24 112.74L11.4 112.74ZM22.218 100.6L16.836 100.6L15.036 98.8178L15.036 93.9398L16.836 92.1218L20.184 92.1218L20.184 98.5658L21.624 98.5658L22.308 97.8818L22.308 94.8038L21.642 94.1558L21.102 94.1558L21.102 92.1398L22.254 92.1398L24 93.8858L24 98.8358L22.218 100.6ZM18.69 94.1558L17.448 94.1558L16.728 94.8578L16.728 97.8638L17.448 98.5658L18.69 98.5658L18.69 94.1558ZM24 84.6784L20.994 86.8564L24 89.0164L24 91.3024L19.446 87.9724L15.036 91.2124L15.036 88.9264L17.916 86.8564L15.036 84.7684L15.036 82.4824L19.482 85.7044L24 82.3924L24 84.6784ZM22.218 80.3266L16.764 80.3266L16.764 81.9466L15.036 81.9466L15.036 80.2906L12.12 80.2906L12.12 78.2926L15.036 78.2926L15.036 75.5386L16.764 75.5386L16.764 78.2926L21.57 78.2926L22.272 77.5906L22.272 75.5386L24 75.5386L24 78.5446L22.218 80.3266Z" fill="#66FEE6"/>
<rect x="12" y="40" width="6.24996" height="6.24996" fill="#66FEE6"/>
<rect x="18.875" y="46.875" width="6.24996" height="6.24996" fill="#66FEE6"/>
<rect x="12" y="53.75" width="6.24996" height="6.24996" fill="#66FEE6"/>
</svg>
